<svg xmlns="http://www.w3.org/2000/svg" viewBox="0 0 64 64" width="64" height="64">
  <defs>
    <linearGradient id="g" x1="0" y1="0" x2="1" y2="1">
      <stop offset="0" stop-color="#7c5cff" />
      <stop offset="1" stop-color="#14c8a6" />
    </linearGradient>
  </defs>
  <rect width="64" height="64" rx="18" fill="#0d1424" />
  <path d="M20 14h16l12 12v24a4 4 0 0 1-4 4H20a4 4 0 0 1-4-4V18a4 4 0 0 1 4-4z" fill="none" stroke="url(#g)" stroke-width="3" />
  <path d="M36 14v10a2 2 0 0 0 2 2h10" fill="none" stroke="url(#g)" stroke-width="3" />
  <path d="M23 44c4-2 5-16 9-16s5 8 9 8" fill="none" stroke="url(#g)" stroke-width="3" stroke-linecap="round" />
</svg>
